<svg xmlns="http://www.w3.org/2000/svg" xmlns:xlink="http://www.w3.org/1999/xlink" width="90" height="90" version="1.1" viewBox="0 0 90 90"><title>Group 13</title><desc>Created with Sketch.</desc><g id="Desktop" fill="none" fill-rule="evenodd" stroke="none" stroke-width="1"><g id="FAQs-2" transform="translate(-676.000000, -1271.000000)"><g id="Group-13-Copy-3" transform="translate(217.000000, 1238.000000)"><g id="Group-2-Copy-5" transform="translate(343.000000, 0.000000)"><g id="studying" transform="translate(122.000000, 40.000000)"><polygon id="Path-3" fill="#FFF" points="8.627 29.818 38.573 36.706 69.584 29.284 69.584 41.066 64.186 44.772 64.186 55.619 68.912 59.403 69.584 64.177 69.584 68.917 39.106 74.817 7.99 68.334 7.99 58.216 12.534 57.046 14.368 52.05 13.817 43.768 8.627 41.985 7.99 34.576"/><polygon id="Path" fill="#FFF" points="24.994 18.915 26.414 10.073 30.388 5.296 34.673 3.252 40.369 3.252 47.14 5.296 50.364 7.481 52.833 12.809 52.833 17.377 53.346 32.701 39.354 36.348 24.994 32.701"/><rect id="Rectangle-7" width="10" height="16" x="4" y="42" fill="#05C0A5"/><rect id="Rectangle-7" width="10" height="16" x="64" y="42" fill="#05C0A5"/><path id="Shape" fill="#003945" fill-rule="nonzero" d="M73.125,39.9450173 L73.125,26.2448364 L56.0625,30.1902345 L56.0625,17.1007963 C56.0625,7.65627082 48.423375,0 39,0 C29.576625,0 21.9375,7.65627082 21.9375,17.1007963 L21.9375,30.1902345 L4.875,26.2448364 L4.875,39.9450173 C1.90825781,41.3553749 0.0124921875,44.3470982 0,47.6379327 L0,52.5238745 C0.0124921875,55.814709 1.90825781,58.8064322 4.875,60.2167899 L4.875,70.4210793 L29.654625,75.1970875 L30.8093022,70.4210793 L9.75,66.3852914 L9.75,60.9496811 C13.9367109,60.3503898 17.0504648,56.7625817 17.0625,52.5238745 L17.0625,47.6379327 C17.0504648,43.3992255 13.9367109,39.8114173 9.75,39.212126 L9.75,32.3864653 L36.5625,38.5989403 L36.5625,65.6664472 L41.4375,65.6664472 L41.4375,38.5989403 L68.25,32.3962372 L68.25,39.2218979 C64.0669453,39.8205785 60.9542578,43.4028899 60.9375,47.6379327 L60.9375,52.5238745 C60.9495352,56.7625817 64.0632891,60.3503898 68.25,60.9496811 L68.25,66.3852914 L41.4375,71.5521749 L41.4375,61.0742727 L36.5625,61.0742727 L36.5625,71.5521749 L30.5735625,70.3990926 L29.654625,75.1970875 L39,77 L73.125,70.4210793 L73.125,60.2167899 C76.0917422,58.8064322 77.9875078,55.814709 78,52.5238745 L78,47.6379327 C77.9875078,44.3470982 76.0917422,41.3553749 73.125,39.9450173 Z M12.1875,47.6379327 L12.1875,52.5238745 C12.1875,54.5477232 10.5505664,56.1883308 8.53125,56.1883308 C6.51193359,56.1883308 4.875,54.5477232 4.875,52.5238745 L4.875,47.6379327 C4.875,45.614084 6.51193359,43.9734763 8.53125,43.9734763 C10.5505664,43.9734763 12.1875,45.614084 12.1875,47.6379327 Z M39,4.88594181 C45.0995391,4.90502752 50.2420547,9.44803729 51.026625,15.5104223 L44.15775,12.0682763 L26.8831875,16.3972207 C27.2457656,9.95083124 32.5578398,4.90411141 39,4.88594181 Z M51.1875,31.318887 L39,34.1380754 L26.8125,31.318887 L26.8125,21.4517275 L43.59225,17.2473746 L51.1875,21.0535233 L51.1875,31.318887 Z M73.125,52.5238745 C73.125,54.5477232 71.4880664,56.1883308 69.46875,56.1883308 C67.4494336,56.1883308 65.8125,54.5477232 65.8125,52.5238745 L65.8125,47.6379327 C65.8125,45.614084 67.4494336,43.9734763 69.46875,43.9734763 C71.4880664,43.9734763 73.125,45.614084 73.125,47.6379327 L73.125,52.5238745 Z"/></g></g></g></g></g></svg>