<svg xmlns="http://www.w3.org/2000/svg" xmlns:xlink="http://www.w3.org/1999/xlink" width="90" height="90" version="1.1" viewBox="0 0 90 90"><title>Group 13</title><desc>Created with Sketch.</desc><g id="Desktop" fill="none" fill-rule="evenodd" stroke="none" stroke-width="1"><g id="FAQs-2" transform="translate(-332.000000, -849.000000)"><g id="Group-13-Copy" transform="translate(217.000000, 814.000000)"><g id="File" transform="translate(115.000000, 35.000000)"><g id="Layer_1" transform="translate(16.000000, 7.000000)"><polygon id="Path-4" fill="#FFF" points="3.345 7.628 7.369 3.523 34.923 3.523 37.036 5.576 37.036 15.977 39.059 21.056 44.188 22.376 51.429 22.376 55.653 22.376 57.143 60.377 54.851 69.199 51.429 71.101 8.961 71.101 3.345 68.387 3.345 61.646"/><polygon id="Path-2" fill="#05C0A5" points="37.437 6.144 37.437 16.13 40.578 20.465 46.825 22.037 53.262 22.037 46.825 11.406 37.437 5.043"/><path id="path7" fill="#003945" fill-rule="nonzero" d="M9.85253882,0 C4.41962264,0 0,4.43803724 0,9.89359106 L0,64.1637016 C0,69.6192554 4.41962264,74.0572917 9.85253882,74.0572917 L49.1474622,74.0572917 C54.5754622,74.0572917 59,69.6192554 59,64.1637016 L59,22.3232593 C59,22.2146419 58.9475293,22.1136618 58.9327793,22.005044 C58.9180293,21.8964266 58.9046609,21.8050893 58.8751609,21.6964719 C58.7620776,21.2817511 58.5846203,20.8889394 58.279787,20.5778987 L38.6131184,0.829287627 C38.544285,0.760167489 38.4467969,0.753532943 38.3730469,0.694287109 C37.9108802,0.254880512 37.2979867,0 36.6637367,0 L9.85253882,0 Z M9.85253882,4.93715278 L34.4166667,4.93715278 L34.4166667,14.9657444 C34.4166667,20.381801 38.7987997,24.7918357 44.1923816,24.7918357 L54.0833333,24.7918357 L54.0833333,64.1637016 C54.0833333,66.8939471 51.8663788,69.1201389 49.1474622,69.1201389 L9.85253882,69.1201389 C7.13362264,69.1201389 4.91666667,66.8939471 4.91666667,64.1637016 L4.91666667,9.89359106 C4.91666667,7.16334607 7.13362215,4.93715278 9.85253882,4.93715278 Z M39.3333333,8.61108861 C42.657,11.9288553 47.1708098,16.4431103 50.5878882,19.8546829 L44.1923816,19.8546829 C41.5127983,19.8546829 39.3333333,17.6614298 39.3333333,14.9657444 L39.3333333,8.61108861 Z M43.2705066,43.3158013 L39.8902983,46.9029514 L43.0784518,49.9308134 L32.9186198,49.9308134 L32.9186198,54.8679662 L43.1840814,54.8679662 L39.8710938,58.1079727 L43.289716,61.646909 L50.9624005,54.1640368 C51.4442338,53.6950073 51.7163418,53.0466209 51.7114252,52.3801053 C51.7065085,51.7037153 51.4250293,51.0649712 50.943196,50.605816 L43.2705066,43.3158013 Z"/></g></g></g></g></g></svg>