<svg xmlns="http://www.w3.org/2000/svg" xmlns:xlink="http://www.w3.org/1999/xlink" width="90" height="90" version="1.1" viewBox="0 0 90 90"><title>Group 13</title><desc>Created with Sketch.</desc><g id="Desktop" fill="none" fill-rule="evenodd" stroke="none" stroke-width="1"><g id="FAQs-2" transform="translate(-675.000000, -633.000000)"><g id="Group-13" transform="translate(216.000000, 602.000000)"><g id="Group-2-Copy-5" transform="translate(343.000000, 0.000000)"><g id="Group-17" transform="translate(128.000000, 38.000000)"><polygon id="Path-4" fill="#FFF" points="5.363 17.119 15.681 11.763 26.409 7.445 30.931 3.989 36.911 3.989 43.545 7.445 50.777 10.554 57.157 13.67 59.13 17.119 62.008 20.446 62.008 30.461 59.13 52.674 47.563 64.876 33.685 74.945 15.681 64.876 5.363 50.104 3.799 23.712"/><g id="shield"><g id="lock" transform="translate(21.000000, 21.000000)"><circle id="Oval-5" cx="12" cy="22" r="10" fill="#05C0A5"/><path id="Shape" fill="#003945" fill-rule="nonzero" stroke="#003945" stroke-width="2" d="M12,18 C10.8972,18 10,19.0451308 10,20.329761 C10,21.2572722 10.4677714,22.0597084 11.1428571,22.4342675 L11.1428571,26 L12.8571429,26 L12.8571429,22.4342009 C13.5322286,22.0595753 14,21.2572056 14,20.3296945 C14,19.0451308 13.1028,18 12,18 Z"/><path id="Shape" fill="#003945" fill-rule="nonzero" stroke="#003945" stroke-width="2" d="M19.1304348,12.1870021 L19.1304348,7.18556701 C19.1304348,3.22341031 15.9317565,0 12,0 C8.06824348,0 4.86956522,3.22341031 4.86956522,7.18556701 L4.86956522,12.1870021 C1.91735652,14.3920948 0,17.9280948 0,21.9072165 C0,28.5752124 5.38316522,34 12,34 C18.6168348,34 24,28.5752124 24,21.9072165 C24,17.9280948 22.0826435,14.3920948 19.1304348,12.1870021 Z M6.95652174,7.18556701 C6.95652174,4.38305567 9.2189913,2.10309278 12,2.10309278 C14.7810087,2.10309278 17.0434783,4.38305567 17.0434783,7.18556701 L17.0434783,10.9360124 C15.509287,10.2168948 13.800487,9.81443299 12,9.81443299 C10.199513,9.81443299 8.49071304,10.2168948 6.95652174,10.9360124 L6.95652174,7.18556701 Z M12,31.8969072 C6.53391304,31.8969072 2.08695652,27.415567 2.08695652,21.9072165 C2.08695652,16.398866 6.53391304,11.9175258 12,11.9175258 C17.466087,11.9175258 21.9130435,16.398866 21.9130435,21.9072165 C21.9130435,27.415567 17.466087,31.8969072 12,31.8969072 Z"/></g><path id="Shape" fill="#003945" fill-rule="nonzero" d="M58.3580181,9.93159375 C50.8812882,8.60742187 43.9958893,4.57214062 40.5570436,2.28469922 C38.3101092,0.790054687 35.6970613,0 33.0001542,0 C30.303247,0 27.690045,0.790054687 25.4432647,2.28454687 C22.0044191,4.57198828 15.1190201,8.60742187 7.64229025,9.93159375 C3.21409052,10.7158594 0,14.5022109 0,18.9346523 L0,37.3240664 C0,43.3990781 1.71988527,49.3209844 5.11156008,54.9257109 C7.76515021,59.3103164 11.4416998,63.5008359 16.0391595,67.3808789 C23.7694712,73.905 31.4242478,77.3069883 31.7461193,77.448668 L33,78 L34.2538807,77.448668 C34.5759063,77.3071406 42.2305288,73.905 49.9608405,67.3808789 C54.5581461,63.5008359 58.2350039,59.3103164 60.8884399,54.9257109 C64.280423,49.3211367 66,43.3990781 66,37.3240664 L66,18.9348047 C66.0003083,14.5022109 62.7862178,10.7158594 58.3580181,9.93159375 Z M59.8320293,37.3242187 C59.8320293,46.3810547 55.2023515,54.9008789 46.0712514,62.6474062 C40.7634545,67.1503828 35.3745732,70.0854375 33.0004625,71.2766133 C27.5431372,68.5362539 6.16827904,56.5695 6.16827904,37.3242187 L6.16827904,18.9348047 C6.16827904,17.457832 7.24580867,16.1949023 8.73045643,15.931957 C17.3195545,14.4108047 25.0464748,9.89670703 28.8876598,7.34159766 C30.1127139,6.52655859 31.5347755,6.09573047 33.0001542,6.09573047 C34.4655328,6.09573047 35.8877486,6.52655859 37.1126485,7.34144531 C40.9539877,9.89670703 48.6807538,14.4105 57.2698519,15.9316523 C58.7543455,16.1945977 59.8320293,17.4575273 59.8320293,18.9345 L59.8320293,37.3242187 Z"/></g></g></g></g></g></g></svg>