<svg xmlns="http://www.w3.org/2000/svg" xmlns:xlink="http://www.w3.org/1999/xlink" width="28" height="28" version="1.1" viewBox="0 0 28 28"><title>coinfi</title><desc>Created with Sketch.</desc><g id="Wallet" fill="none" fill-rule="evenodd" stroke="none" stroke-width="1"><g id="Desktop" transform="translate(-122.000000, -395.000000)"><g id="coinfi" transform="translate(122.000000, 395.000000)"><circle id="Oval-2" cx="14" cy="14" r="14" fill="#FFF"/><g id="symbol" fill="#2E465A" stroke-width="1" transform="translate(5.894737, 5.000000)"><path id="Shape" fill-rule="nonzero" d="M11.6359564,4.83822397 C10.9213071,4.44399831 10.0967118,4.21104679 9.20798127,4.21104679 C6.505141,4.21104679 4.3062201,6.36136855 4.3062201,9.00447239 C4.3062201,11.6475762 6.505141,13.797898 9.20798127,13.797898 C10.0875496,13.797898 10.912145,13.5739061 11.6267943,13.1707208 L14.2105263,16.5574776 C12.7720656,17.4713643 11.0495775,17.9999851 9.20798127,17.9999851 C4.12297669,18.0089448 0,13.9770915 0,9.00447239 C0,4.03185331 4.12297669,0 9.20798127,0 C11.0404154,0 12.7537412,0.519661093 14.1830398,1.42458817 L11.6359564,4.83822397 Z"/><ellipse id="Oval" cx="9" cy="8.526" fill-rule="nonzero" rx="1.421" ry="1.895"/></g></g></g></g></svg>