<svg xmlns="http://www.w3.org/2000/svg" xmlns:xlink="http://www.w3.org/1999/xlink" width="35" height="35" version="1.1" viewBox="0 0 35 35"><title>Group 4</title><desc>Created with Sketch.</desc><g id="Wallet" fill="none" fill-rule="evenodd" stroke="none" stroke-width="1"><g id="New" transform="translate(-61.000000, -576.000000)"><g id="Group-4" transform="translate(61.000000, 576.000000)"><circle id="Oval" cx="17.5" cy="17.5" r="17" fill="#FFF" stroke="#212121"/><polygon id="Path-2" fill="#11ACA2" fill-rule="nonzero" points="25.656 11.512 16.058 17.089 25.304 22.985"/><polygon id="Path-4" fill="#11ACA2" fill-rule="nonzero" points="18.031 5.913 15.512 17.521 25.753 11.717"/><polygon id="Path-5" fill="#11ACA2" fill-rule="nonzero" points="18.082 29.177 15.533 17.763 25.211 23.47"/><path id="Shape" fill="#212121" fill-rule="nonzero" d="M17.3046213,5.25350072 L10.4676538,10.607436 C10.1712535,10.8372767 10,11.1955577 10,11.5808788 L10,22.9309512 C10,23.3095123 10.1712535,23.6745534 10.4676538,23.9043941 L17.3046213,29.2515692 C17.7327551,29.5828103 18.3255557,29.5828103 18.7471028,29.2515692 L25.5840702,23.897634 C25.8804705,23.6677933 26.0517241,23.3095123 26.0517241,22.9241912 L26.0517241,11.5741188 C26.0517241,11.1955577 25.8804705,10.8305167 25.5840702,10.600676 L18.7471028,5.25350072 C18.3255557,4.91549976 17.7327551,4.91549976 17.3046213,5.25350072 Z M16.0399799,18.1651377 L24.8266028,23.3365524 L18.2069956,28.5147272 L16.0399799,18.1651377 Z M18.2135822,5.99034283 L24.8266028,11.1685176 L16.0399799,16.3399324 L18.2135822,5.99034283 Z M16.2902735,17.252535 L25.1559365,12.0270401 L25.1559365,22.4712699 L16.2902735,17.252535 Z M10.8957876,11.4253984 L17.1926478,6.49734428 L14.9400054,17.252535 L17.1926478,28.0077258 L10.8957876,23.0796717 L10.8957876,11.4253984 Z"/></g></g></g></svg>