<svg xmlns="http://www.w3.org/2000/svg" xmlns:xlink="http://www.w3.org/1999/xlink" width="28" height="28" version="1.1" viewBox="0 0 28 28"><title>MossCoin_logo_1000x1000-01</title><desc>Created with Sketch.</desc><g id="Wallet" fill="none" fill-rule="evenodd" stroke="none" stroke-width="1"><g id="New" fill-rule="nonzero" transform="translate(-116.000000, -307.000000)"><g id="MossCoin_logo_1000x1000-01" transform="translate(116.000000, 307.000000)"><circle id="Oval" cx="14" cy="14" r="14" fill="#9CE3E5"/><g id="Group" fill="#2E7689" opacity=".7" transform="translate(0.000000, 14.000000)"><path id="Shape" d="M28,0 C28,7.73192 21.73192,14 14,14 C6.26808,14 0,7.73192 0,0 L28,0 Z"/></g><circle id="Oval" cx="14.167" cy="14.167" r="12.833" fill="#36C7CE"/><g id="Group" fill="#3588A5" opacity=".7" transform="translate(8.000000, 8.333333)"><path id="Shape" d="M12.3272546,0 L18.6594121,6.3025 C18.5578475,12.9902778 12.9673343,18.2358333 6.24286996,18.3172222 L0.0145092177,12.1155556 L2.68225212,12.1155556 L2.68225212,4.5525 L5.66417539,9.07111111 L6.17506726,9.35805556 L9.1327155,4.99444444 L12.3272546,0 Z"/></g><polygon id="Shape" fill="#EBFFFF" points="17.304 20 17.304 11.948 13.835 17.216 13.764 17.216 10.329 12.001 10.329 20 7.667 20 7.667 7.667 10.591 7.667 13.835 12.881 17.074 7.667 20 7.667 20 20"/><polygon id="Shape" fill="#2FADAA" points="10.464 20 11 20.5 8.202 20.5 7.667 20"/><polygon id="Shape" fill="#2FADAA" points="20.131 20 20.667 20.5 17.869 20.5 17.333 20"/><polygon id="Shape" fill="#28808E" points="17 12 13.667 17.278 14.158 17.667 17 13.288"/><polygon id="Shape" fill="#28808E" points="10.348 19.939 10.333 12 11 12.788 11 20.333"/><polygon id="Shape" fill="#28808E" points="20 19.938 20.013 7.667 20.667 8.213 20.667 20.333"/><polygon id="Rectangle-path" fill="#EBFFFF" points="4.667 12.333 7.667 12.333 7.667 13.667 4.667 13.667"/><polygon id="Rectangle-path" fill="#EBFFFF" points="4.667 14.667 7.667 14.667 7.667 16 4.667 16"/><polygon id="Shape" fill="#2FADAA" points="7.667 13.667 7.667 14.167 5.19 14.167 4.667 13.667"/><polygon id="Shape" fill="#2FADAA" points="7.667 16 7.667 16.5 5.19 16.5 4.667 16"/><polygon id="Rectangle-path" fill="#EBFFFF" points="20 12.333 23 12.333 23 13.667 20 13.667"/><polygon id="Shape" fill="#2FADAA" points="22.838 13.667 23.333 14.167 20.496 14.167 20 13.667"/><polygon id="Shape" fill="#28808E" points="23.667 14 23 13.594 23 12.333 23.667 12.74"/><polygon id="Rectangle-path" fill="#EBFFFF" points="20 14.667 23 14.667 23 16 20 16"/><polygon id="Shape" fill="#2FADAA" points="22.838 16 23.333 16.5 20.496 16.5 20 16"/><polygon id="Shape" fill="#28808E" points="23.667 16.333 23 15.927 23 14.667 23.667 15.073"/><g id="Group" fill="#2F7A8E" opacity=".7" transform="translate(14.333333, 14.666667)"><path id="Shape" d="M1.18388203,13.3108298 C7.64883402,12.5738397 12.9020645,7.60956399 13.6556996,1.14627286 L13.0122977,0.502953586 L12.5342455,0.0247538678 C12.2027023,6.78087201 6.83839506,11.8728551 0.0205281207,12.1915612 L0.656337449,12.8270042 L1.18388203,13.3108298"/></g><g id="Group" fill="#3CA7D5" opacity=".7" transform="translate(1.333333, 1.333333)"><path id="Shape" d="M25.6504148,12.6666667 C25.6504148,5.67981077 19.9121215,0.0160407569 12.8333333,0.0160407569 C5.75454512,0.0160407569 0.0162518195,5.67981077 0.0162518195,12.6666667 C0.0162518195,6.59634643 6.68314047,1.03877729 12.8333333,1.03877729 C18.9835262,1.03877729 25.6504148,6.59634643 25.6504148,12.6666667 Z"/></g></g></g></g></svg>