<svg xmlns="http://www.w3.org/2000/svg" xmlns:xlink="http://www.w3.org/1999/xlink" width="25" height="28" version="1.1" viewBox="0 0 25 28"><title>rp-logo-icon-dark</title><desc>Created with Sketch.</desc><g id="Wallet" fill="none" fill-rule="evenodd" stroke="none" stroke-width="1"><g id="All-Tokens" fill="#080818" fill-rule="nonzero" transform="translate(-44.000000, -393.000000)"><g id="rp-logo-icon-dark" transform="translate(44.000000, 393.000000)"><polygon id="Shape" points="3.85 5.886 5.886 4.709 6.173 5.186 13.745 .795 13.205 .477 12.632 .159 12.377 0 0 7.159 0 7.445 3.564 5.409"/><polygon id="Shape" points="3.85 10.373 9.8 6.968 10.055 7.445 17.659 3.055 17.086 2.736 16.545 2.418 16.259 2.259 0 11.614 0 11.964 3.564 9.895"/><polygon id="Shape" points="3.85 12.632 11.709 8.082 11.995 8.559 19.6 4.168 19.027 3.85 18.486 3.532 18.2 3.373 0 13.873 0 14.191 3.564 12.155"/><polygon id="Shape" points="3.85 14.859 13.714 9.164 14 9.641 21.541 5.282 20.968 4.964 20.427 4.645 20.141 4.486 0 16.132 0 16.418 3.564 14.382"/><polygon id="Shape" points="3.85 17.118 15.655 10.277 15.941 10.786 23.482 6.427 22.909 6.077 22.368 5.791 22.082 5.6 0 18.359 0 18.677 3.564 16.641"/><polygon id="Shape" points="24.309 6.905 24.023 6.714 0 20.618 0 20.936 3.564 18.9 3.85 19.345 15.655 12.536 15.941 13.014 24.723 7.955 24.723 7.318 24.723 7.159"/><polygon id="Shape" points="1.527 22.305 3.5 21.159 3.786 21.636 15.591 14.795 15.909 15.305 24.723 10.182 24.723 9.545 24.723 8.909 24.723 8.591 1.273 22.145"/><polyline id="Shape" points="15.591 17.055 15.909 17.564 24.723 12.441 24.723 11.773 24.723 11.136 24.723 10.85 3.214 23.259 3.468 23.418 5.505 22.241 5.791 22.718"/><polygon id="Shape" points="5.409 24.532 7.445 23.355 7.732 23.864 15.591 19.314 15.909 19.791 24.723 14.668 24.723 14.032 24.723 13.395 24.723 13.077 5.123 24.373"/><polygon id="Shape" points="7.382 25.645 9.386 24.5 9.673 24.977 15.591 21.541 15.909 22.018 24.723 16.927 24.723 16.291 24.723 15.655 24.723 15.305 7.064 25.518"/><polygon id="Shape" points="9.036 26.632 9.323 26.791 11.327 25.614 11.614 26.123 15.591 23.8 15.909 24.277 24.723 19.186 24.723 18.55 24.723 17.882 24.723 17.564"/><polygon id="Shape" points="11.264 27.905 13.268 26.759 13.555 27.236 15.591 26.027 15.909 26.536 24.723 21.414 24.723 20.777 24.723 20.141 24.723 19.823 10.977 27.777"/><polygon id="Shape" points="15.718 1.909 15.145 1.623 15.145 1.623 14.605 1.273 14.318 1.114 0 9.386 0 9.705 3.564 7.668 3.85 8.145 7.827 5.823 8.114 6.3"/></g></g></g></svg>