<svg xmlns="http://www.w3.org/2000/svg" xmlns:xlink="http://www.w3.org/1999/xlink" width="103" height="100" version="1.1" viewBox="0 0 103 100"><title>metamask</title><desc>Created with Sketch.</desc><defs><filter id="filter-1" width="130.1%" height="123.4%" x="-15.1%" y="-9.7%" filterUnits="objectBoundingBox"><feOffset dx="0" dy="5" in="SourceAlpha" result="shadowOffsetOuter1"/><feGaussianBlur in="shadowOffsetOuter1" result="shadowBlurOuter1" stdDeviation="9"/><feColorMatrix in="shadowBlurOuter1" result="shadowMatrixOuter1" type="matrix" values="0 0 0 0 0.118312129 0 0 0 0 0.461199204 0 0 0 0 0.461840986 0 0 0 0.136379076 0"/><feMerge><feMergeNode in="shadowMatrixOuter1"/><feMergeNode in="SourceGraphic"/></feMerge></filter></defs><g id="InVision-V2" fill="none" fill-rule="evenodd" stroke="none" stroke-width="1"><g id="metamask1" transform="translate(-776.000000, -280.000000)"><g id="Group-9" transform="translate(300.000000, 251.000000)"><g id="metamask-copy-3" filter="url(#filter-1)" transform="translate(429.637046, 0.000000)"><g id="metamask" transform="translate(62.172043, 40.300000)"><polygon id="Path-6" fill="#FFF" points="3.428 43.266 25.227 37.847 34.898 48.567 44.646 37.847 65.578 43.266 65.578 37.847 59.36 20.746 58.059 4.017 54.863 6.262 47.766 12.562 44.646 16.991 39.402 18.238 32.437 18.238 26.14 18.238 21.568 11.685 15.535 5.376 13.501 5.376 11.673 10.453 9.322 24.444 6.414 35.469"/><path id="Path-3" stroke="#003945" stroke-width="5" d="M8.98162093,28.2364815 C8.91538179,28.6710958 8.79727203,29.0962005 8.62982037,29.5026941 L3.25452172,42.551385 C3.16327615,42.7728862 3.24195786,43.0279821 3.44211991,43.1596016 L35.1737005,64.0251739 C35.3407058,64.1349907 35.5570666,64.1347964 35.7238744,64.0246799 L67.3435432,43.1512695 C67.5418221,43.0203776 67.6206106,42.7680308 67.5320306,42.547575 L62.2688464,29.4486895 C62.1219817,29.0831762 62.0148093,28.7029428 61.9491739,28.3145342 L57.7536713,3.48694518 C57.7351936,3.37760034 57.6808892,3.27750093 57.5993008,3.20239394 C57.3961358,3.01536833 57.0798238,3.02845192 56.8927981,3.23161695 L45.25088,15.8781773 C44.2094655,17.009461 42.7420321,17.6531392 41.2043888,17.6531392 L29.6389832,17.6531392 C28.1273297,17.6531392 26.6823133,17.0309666 25.6434831,15.9328191 L13.6118744,3.21420396 C13.5353632,3.13332392 13.4340461,3.0802939 13.3239817,3.0635191 C13.0509917,3.02191296 12.7959612,3.20948663 12.754355,3.48247663 L8.98162093,28.2364815 Z"/><polygon id="Path-2" fill="#05C0A5" points="9.03 44.046 35.5 61.447 61.14 44.411 45.646 37.5 37.087 47.83 26.396 38.199"/><path id="Path-4" stroke="#003945" stroke-width="5" d="M2.99006954,42.9282643 L25.3931022,37.5651763 C25.7628697,37.4766572 26.1508466,37.6054903 26.3942175,37.8976106 L34.9316774,48.1451978 C35.2851878,48.5695195 35.9157452,48.6269233 36.3400668,48.2734129 C36.4077122,48.2170563 36.4676185,48.1520129 36.5182321,48.0799697 L43.6110215,37.9841163 C43.8494037,37.6448039 44.2724701,37.487821 44.6744888,37.5895066 L65.7815299,42.9282643"/></g></g></g></g></g></svg>