<svg xmlns="http://www.w3.org/2000/svg" xmlns:xlink="http://www.w3.org/1999/xlink" width="74" height="75" version="1.1" viewBox="0 0 74 75"><title>Optionals</title><desc>Created with Sketch.</desc><g id="Extension" fill="none" fill-rule="evenodd" stroke="none" stroke-width="1"><g id="my-wallet-12-copy-3" transform="translate(-600.000000, -322.000000)"><g id="Group-8" transform="translate(396.000000, 302.000000)"><g id="metamask-copy-16" transform="translate(166.000000, 0.000000)"><g id="Group-7" transform="translate(44.642384, 27.000000)"><path id="Rectangle-11-Copy" fill="#FFF" stroke="#0B2840" stroke-width="4" d="M12,8 C11.4477153,8 11,8.44771525 11,9 L11,53 C11,53.5522847 11.4477153,54 12,54 L48.0922662,54 C48.644551,54 49.0922662,53.5522847 49.0922662,53 L49.0922662,9 C49.0922662,8.44771525 48.644551,8 48.0922662,8 L12,8 Z"/><g id="Group-2" transform="translate(19.102144, 17.016949)"><ellipse id="Oval-2" cx="2.79" cy="2.799" fill="#05C0A5" rx="2.79" ry="2.799"/><ellipse id="Oval-2" cx="2.79" cy="14.796" fill="#05C0A5" rx="2.79" ry="2.799"/><ellipse id="Oval-2" cx="2.79" cy="25.993" fill="#05C0A5" rx="2.79" ry="2.799"/><path id="Rectangle-3" fill="#0B2840" d="M9.76795238,0.799776215 L21.3184242,0.799776215 C21.870709,0.799776215 22.3184242,1.24749147 22.3184242,1.79977622 L22.3184242,3.79865729 C22.3184242,4.35094204 21.870709,4.79865729 21.3184242,4.79865729 L9.76795238,4.79865729 C9.21566763,4.79865729 8.76795238,4.35094204 8.76795238,3.79865729 L8.76795238,1.79977622 C8.76795238,1.24749147 9.21566763,0.799776215 9.76795238,0.799776215 Z"/><path id="Rectangle-3" fill="#0B2840" d="M9.76795238,12.7964194 L21.3184242,12.7964194 C21.870709,12.7964194 22.3184242,13.2441347 22.3184242,13.7964194 L22.3184242,15.7953005 C22.3184242,16.3475853 21.870709,16.7953005 21.3184242,16.7953005 L9.76795238,16.7953005 C9.21566763,16.7953005 8.76795238,16.3475853 8.76795238,15.7953005 L8.76795238,13.7964194 C8.76795238,13.2441347 9.21566763,12.7964194 9.76795238,12.7964194 Z"/><path id="Rectangle-3" fill="#0B2840" d="M9.76795238,23.9932865 L21.3184242,23.9932865 C21.870709,23.9932865 22.3184242,24.4410017 22.3184242,24.9932865 L22.3184242,26.9921675 C22.3184242,27.5444523 21.870709,27.9921675 21.3184242,27.9921675 L9.76795238,27.9921675 C9.21566763,27.9921675 8.76795238,27.5444523 8.76795238,26.9921675 L8.76795238,24.9932865 C8.76795238,24.4410017 9.21566763,23.9932865 9.76795238,23.9932865 Z"/></g></g></g></g></g></g></svg>