<svg xmlns="http://www.w3.org/2000/svg" xmlns:xlink="http://www.w3.org/1999/xlink" width="66" height="66" version="1.1" viewBox="0 0 66 66"><title>Crypto</title><desc>Created with Sketch.</desc><g id="3" fill="none" fill-rule="evenodd" stroke="none" stroke-width="1"><g id="myetherwallet---130" stroke="#043945" stroke-width="6" transform="translate(-710.000000, -528.000000)"><g id="Group-8" transform="translate(513.000000, 466.000000)"><g id="Group-14" transform="translate(0.000000, 43.000000)"><g id="Group-12" transform="translate(160.000000, 0.000000)"><g id="Group-10-Copy" transform="translate(40.000000, 22.000000)"><g id="Crypto"><rect id="Rectangle" width="60" height="60" x="0" y="0" rx="30"/><rect id="Rectangle-Copy-3" width="20" height="20" x="20" y="20" fill="#20BFA5"/><line id="Path-Copy-2" x1="27" x2="33" y1="30" y2="30"/><line id="Path-Copy" x1="41" x2="49" y1="24" y2="24"/><line id="Path" x1="41" x2="49" y1="36" y2="36"/><line id="Path-Copy-4" x1="11" x2="19" y1="24" y2="24"/><line id="Path-Copy-3" x1="11" x2="19" y1="36" y2="36"/><path id="Combined-Shape" d="M41,24 L49,24 M41,36 L49,36 M11,24 L19,24 M11,36 L19,36" transform="translate(30.000000, 30.000000) rotate(90.000000) translate(-30.000000, -30.000000)"/></g></g></g></g></g></g></g></svg>