<svg xmlns="http://www.w3.org/2000/svg" xmlns:xlink="http://www.w3.org/1999/xlink" width="19" height="19" version="1.1" viewBox="0 0 19 19"><title>more</title><desc>Created with Sketch.</desc><g id="Symbols" fill="none" fill-rule="evenodd" stroke="none" stroke-width="1"><g id="balance-box" fill="#000" fill-rule="nonzero" transform="translate(-128.000000, -102.000000)"><g id="more" transform="translate(128.000000, 102.000000)"><g id="Layer_1"><path id="Shape" d="M9.5,19 C4.26132,19 0,14.73868 0,9.5 C0,4.26132 4.26132,0 9.5,0 C14.73868,0 19,4.26132 19,9.5 C19,14.73868 14.73868,19 9.5,19 Z M9.5,1 C4.81285714,1 1,4.81285714 1,9.5 C1,14.1871429 4.81285714,18 9.5,18 C14.1871429,18 18,14.1871429 18,9.5 C18,4.81285714 14.1871429,1 9.5,1 Z"/><circle id="Oval" cx="9.5" cy="9.5" r="1.52"/><circle id="Oval" cx="4.94" cy="9.5" r="1.52"/><circle id="Oval" cx="14.06" cy="9.5" r="1.52"/></g></g></g></g></svg>