<svg xmlns="http://www.w3.org/2000/svg" xmlns:xlink="http://www.w3.org/1999/xlink" width="32" height="32" version="1.1" viewBox="0 0 32 32"><title>Group 14</title><desc>Created with Sketch.</desc><g id="View-Wallet-Info" fill="none" fill-rule="evenodd" stroke="none" stroke-width="1"><g id="view-wallet-info-2" transform="translate(-414.000000, -636.000000)"><g id="Group-23" transform="translate(311.000000, 288.000000)"><g id="Group-12" transform="translate(102.000000, 348.000000)"><g id="Group-19" transform="translate(1.000000, 0.000000)"><g id="Group-18" transform="translate(5.000000, 5.000000)"><g id="Group-17" stroke="#999" stroke-width="1.8"><rect id="Rectangle" width="8.2" height="8.2" x=".9" y=".9" fill="#999" rx="2"/><rect id="Rectangle-Copy-2" width="8.2" height="8.2" x=".9" y="12.9" fill="#FFF" rx="2"/><rect id="Rectangle-Copy" width="8.2" height="8.2" x="12.9" y=".9" fill="#FFF" rx="2"/></g><path id="Combined-Shape" fill="#999" d="M18,16 L21,16 C21.5522847,16 22,16.4477153 22,17 L22,21 C22,21.5522847 21.5522847,22 21,22 L17,22 C16.4477153,22 16,21.5522847 16,21 L16,18 L13,18 C12.4477153,18 12,17.5522847 12,17 L12,13 C12,12.4477153 12.4477153,12 13,12 L17,12 C17.5522847,12 18,12.4477153 18,13 L18,16 Z"/></g></g></g></g></g></g></svg>