<svg xmlns="http://www.w3.org/2000/svg" xmlns:xlink="http://www.w3.org/1999/xlink" width="34" height="34" version="1.1" viewBox="0 0 34 34"><title>qr-code</title><desc>Created with Sketch.</desc><g id="Desktop" fill="none" fill-rule="evenodd" stroke="none" stroke-width="1"><g id="swap-2.1-copy" fill="#003945" fill-rule="nonzero" transform="translate(-866.000000, -913.000000)"><g id="pop-out" transform="translate(401.000000, 207.000000)"><g id="Group-14" transform="translate(189.000000, 692.000000)"><g id="qr-code" transform="translate(276.000000, 14.000000)"><path id="Shape" d="M0,33.1282051 L14.8205128,33.1282051 L14.8205128,19.1794872 L0,19.1794872 L0,33.1282051 Z M2.96387546,21.9694445 L11.8563129,21.9694445 L11.8563129,30.3170262 L2.96387546,30.3170262 L2.96387546,21.9694445 Z"/><rect id="Rectangle-path" width="4.359" height="4.359" x="7.846" y="24.41"/><rect id="Rectangle-path" width="4.359" height="3.487" x="24.41" y="30.513"/><rect id="Rectangle-path" width="3.487" height="3.487" x="30.513" y="30.513"/><polygon id="Shape" points="30.338 21.969 27.549 21.969 27.549 19.179 19.179 19.179 19.179 33.128 21.969 33.128 21.969 24.759 24.759 24.759 24.759 27.549 33.128 27.549 33.128 19.179 33.128 19.179 30.338 19.179"/><path id="Shape" d="M0,14.8205128 L14.8205128,14.8205128 L14.8205128,0 L0,0 L0,14.8205128 Z M2.96387546,2.96381058 L11.8563129,2.96381058 L11.8563129,11.8560534 L2.96387546,11.8560534 L2.96387546,2.96381058 Z"/><rect id="Rectangle-path" width="4.359" height="4.359" x="7.846" y="7.846"/><path id="Shape" d="M19.1794872,0 L19.1794872,14.8205128 L33.1282051,14.8205128 L33.1282051,0 L19.1794872,0 Z M30.3382936,11.8560534 L21.9693987,11.8560534 L21.9693987,2.96381058 L30.3382936,2.96381058 L30.3382936,11.8560534 Z"/><rect id="Rectangle-path" width="4.359" height="4.359" x="24.41" y="7.846"/></g></g></g></g></g></svg>