<svg xmlns="http://www.w3.org/2000/svg" xmlns:xlink="http://www.w3.org/1999/xlink" width="26" height="26" version="1.1" viewBox="0 0 26 26"><title>ETH</title><desc>Created with Sketch.</desc><g id="Desktop" fill="none" fill-rule="evenodd" stroke="none" stroke-width="1"><g id="my-wallet-1.2" transform="translate(-384.000000, -434.000000)"><g id="Group-28" transform="translate(317.000000, 284.000000)"><g id="Group-25" transform="translate(54.000000, 107.000000)"><g id="Group-4"><g id="Group" transform="translate(0.000000, 33.000000)"><g id="ETH" transform="translate(13.503546, 10.000000)"><path id="Fill-506" fill="#497391" d="M24.9408192,13 C24.9408192,20.17977 19.3576921,26 12.4704096,26 C5.58325179,26 0,20.17977 0,13 C0,5.82023 5.58325179,0 12.4704096,0 C19.3576921,0 24.9408192,5.82023 24.9408192,13"/><polygon id="Fill-507" fill="#FFF" points="7.22 14.865 12.47 3.421 12.47 17.789"/><polygon id="Fill-508" fill="#FFF" points="17.721 14.866 12.47 17.789 12.47 3.421"/><polygon id="Fill-509" fill="#FFF" points="7.22 15.053 12.47 17.938 12.47 22.579"/><polygon id="Fill-510" fill="#FFF" points="17.721 15.053 12.47 22.579 12.47 17.938"/></g></g></g></g></g></g></g></svg>