<svg xmlns="http://www.w3.org/2000/svg" xmlns:xlink="http://www.w3.org/1999/xlink" width="45" height="45" version="1.1" viewBox="0 0 45 45"><title>ledger</title><desc>Created with Sketch.</desc><g id="Landing-pages" fill="none" fill-rule="evenodd" stroke="none" stroke-width="1"><g id="Hardware(pop-out)1-Copy-2" fill="#002747" fill-rule="nonzero" transform="translate(-539.000000, -298.000000)"><g id="ledger" transform="translate(543.000000, 297.000000)"><g id="Shape"><path d="M24.4918168,0 L11.0686288,0 L11.0686288,17.9560876 L29.0835935,17.9560876 L29.083574,4.67179968 C29.0909091,2.14946652 27.0224178,2.59742826e-16 24.4918168,0 Z M6.94631642,0 L4.69444826,0 C2.16384725,0 0,2.05442208 0,4.67911079 L0,6.92362174 L6.94631642,6.92362174 L6.94631642,0 Z M0,11.1275103 L6.94631642,11.1275103 L6.94631642,18.0511321 L0,18.0511321 L0,11.1275103 Z M22.1445927,29.083598 L24.3964608,29.083598 C26.9270618,29.083598 29.0909091,27.0291759 29.0909091,24.4044872 L29.0909091,22.1672873 L22.1445927,22.1672873 L22.1445927,29.083598 Z M11.0686288,22.1672873 L18.0149452,22.1672873 L18.0149452,29.0909091 L11.0686288,29.0909091 L11.0686288,22.1672873 Z M0,22.1672873 L0,24.4117983 C0,26.9341315 2.06115619,29.0909091 4.69444826,29.0909091 L6.94631642,29.0909091 L6.94631642,22.1672873 L0,22.1672873 Z" transform="translate(4.000000, 8.909091)"/></g></g></g></g></svg>