<svg xmlns="http://www.w3.org/2000/svg" xmlns:xlink="http://www.w3.org/1999/xlink" width="45" height="45" version="1.1" viewBox="0 0 45 45"><title>ledger</title><desc>Created with Sketch.</desc><g id="Landing-pages" fill="none" fill-rule="evenodd" stroke="none" stroke-width="1"><g id="Hardware(pop-out)1-Copy-2" fill="#002747" transform="translate(-538.000000, -461.000000)"><g id="pop-out" transform="translate(477.000000, 207.000000)"><g id="Group-10" transform="translate(61.000000, 254.000000)"><g id="Secalot" transform="translate(11.632558, 6.000000)"><path id="usb-[#196]" fill-rule="nonzero" d="M11.9,27.2 C11.9,28.1388841 11.1388841,28.9 10.2,28.9 C9.26111593,28.9 8.5,28.1388841 8.5,27.2 L8.5,25.5 L11.9,25.5 L11.9,27.2 Z M15.8930233,21.1906977 L4.50697674,21.1906977 C3.4589201,21.1906977 2.60930233,20.3587803 2.60930233,19.3325581 L2.60930233,4.46744186 C2.60930233,3.44121973 3.4589201,2.60930233 4.50697674,2.60930233 L15.8930233,2.60930233 C16.9410799,2.60930233 17.7906977,3.44121973 17.7906977,4.46744186 L17.7906977,19.3325581 C17.7906977,20.3587803 16.9410799,21.1906977 15.8930233,21.1906977 Z M12.2953488,31.3906977 L8.10465116,31.3906977 C6.94742195,31.3906977 6.00930233,30.5410799 6.00930233,29.4930233 L6.00930233,23.8 L14.3906977,23.8 L14.3906977,29.4930233 C14.3906977,30.5410799 13.452578,31.3906977 12.2953488,31.3906977 Z M2.27373675e-13,3.4 L2.27373675e-13,20.4 C2.27373675e-13,22.2777681 1.52223185,23.8 3.4,23.8 L3.4,30.6 C3.4,32.4777681 4.92223185,34 6.8,34 L13.6,34 C15.4777681,34 17,32.4777681 17,30.6 L17,23.8 C18.8777681,23.8 20.4,22.2777681 20.4,20.4 L20.4,3.4 C20.4,1.52223185 18.8777681,0 17,0 L3.4,0 C1.52223185,0 2.27373675e-13,1.52223185 2.27373675e-13,3.4 Z"/><polygon id="Rectangle-5" points="-1.714 6.43 17.262 6.43 17.262 9.276 -1.714 9.276" transform="translate(7.773924, 7.852994) scale(-1, 1) rotate(45.000000) translate(-7.773924, -7.852994)"/><polygon id="Rectangle-5-Copy" points="1.448 13.546 22.006 13.546 22.006 16.393 1.448 16.393" transform="translate(11.727413, 14.969273) scale(-1, 1) rotate(45.000000) translate(-11.727413, -14.969273)"/></g></g></g></g></g></svg>