<svg xmlns="http://www.w3.org/2000/svg" xmlns:xlink="http://www.w3.org/1999/xlink" width="45" height="45" version="1.1" viewBox="0 0 45 45"><title>ic_logo_myetherwallet</title><desc>Created with Sketch.</desc><g id="ic_logo_myetherwallet" fill="none" fill-rule="evenodd" stroke="none" stroke-width="1"><g id="logo-2" transform="translate(6.000000, 6.000000)"><rect id="Rectangle" width="29" height="29" x="2" y="2" stroke="#002747" stroke-width="3" rx="5"/><g id="Group" fill="#002747" transform="translate(16.353553, 16.853553) rotate(45.000000) translate(-16.353553, -16.853553) translate(4.853553, 5.353553)"><path id="Combined-Shape" d="M12.7616916,14.4254383 L12.7624742,22.0784383 L9.89290899,22.0784383 L9.8926916,14.4254383 L12.7616916,14.4254383 Z M22.3276916,9.64365564 L22.3276916,12.5132209 L14.6746916,12.5124383 L14.6746916,9.64343825 L22.3276916,9.64365564 Z M7.9796916,9.64343825 L7.9796916,12.5124383 L0.327691595,12.5132209 L0.327691595,9.64365564 L7.9796916,9.64343825 Z M12.7624742,9.64365564 L12.7624742,12.5132209 L9.89290899,12.5132209 L9.89290899,9.64365564 L12.7624742,9.64365564 Z M12.7624742,0.0784382514 L12.7616916,7.73043825 L9.8926916,7.73043825 L9.89290899,0.0784382514 L12.7624742,0.0784382514 Z"/></g></g></g></svg>